<svg width="333" height="98" viewBox="0 0 333 98" fill="none" xmlns="http://www.w3.org/2000/svg">
<g clip-path="url(#clip0_6_4)">
<path d="M107.88 45V39.24H116.7V6.96H107.88V1.2H132.12V6.96H123.3V39.24H132.12V45H107.88ZM153.217 45.6C150.497 45.6 148.117 45.1 146.077 44.1C144.077 43.06 142.517 41.58 141.397 39.66C140.317 37.7 139.777 35.42 139.777 32.82V13.38C139.777 10.74 140.317 8.46 141.397 6.54C142.517 4.62 144.077 3.16 146.077 2.16C148.117 1.12 150.497 0.599999 153.217 0.599999C155.937 0.599999 158.297 1.12 160.297 2.16C162.297 3.2 163.837 4.68 164.917 6.6C166.037 8.48 166.597 10.74 166.597 13.38H160.117C160.117 11.1 159.517 9.36 158.317 8.16C157.117 6.96 155.417 6.36 153.217 6.36C151.017 6.36 149.297 6.96 148.057 8.16C146.857 9.36 146.257 11.08 146.257 13.32V32.82C146.257 35.06 146.857 36.8 148.057 38.04C149.297 39.24 151.017 39.84 153.217 39.84C155.417 39.84 157.117 39.24 158.317 38.04C159.517 36.8 160.117 35.06 160.117 32.82H166.597C166.597 35.42 166.037 37.68 164.917 39.6C163.837 41.52 162.297 43 160.297 44.04C158.297 45.08 155.937 45.6 153.217 45.6ZM173.053 45V1.2H179.533V19.32H192.373V1.2H198.853V45H192.373V25.32H179.533V45H173.053ZM218.93 45.6C216.21 45.6 213.85 45.1 211.85 44.1C209.89 43.06 208.37 41.58 207.29 39.66C206.25 37.7 205.73 35.42 205.73 32.82V13.38C205.73 10.74 206.25 8.46 207.29 6.54C208.37 4.62 209.89 3.16 211.85 2.16C213.85 1.12 216.21 0.599999 218.93 0.599999C221.65 0.599999 223.99 1.12 225.95 2.16C227.95 3.16 229.47 4.62 230.51 6.54C231.59 8.46 232.13 10.72 232.13 13.32V32.82C232.13 35.42 231.59 37.7 230.51 39.66C229.47 41.58 227.95 43.06 225.95 44.1C223.99 45.1 221.65 45.6 218.93 45.6ZM218.93 39.84C221.13 39.84 222.79 39.24 223.91 38.04C225.07 36.8 225.65 35.06 225.65 32.82V13.38C225.65 11.1 225.07 9.36 223.91 8.16C222.79 6.96 221.13 6.36 218.93 6.36C216.77 6.36 215.11 6.96 213.95 8.16C212.79 9.36 212.21 11.1 212.21 13.38V32.82C212.21 35.06 212.79 36.8 213.95 38.04C215.11 39.24 216.77 39.84 218.93 39.84ZM240.446 45V1.2H246.926V39.06H266.066V45H240.446ZM269.463 45L280.623 1.2H289.143L300.303 45H293.763L291.123 33.9H278.703L276.063 45H269.463ZM279.903 28.56H289.863L286.863 15.9C286.343 13.66 285.903 11.72 285.543 10.08C285.223 8.4 285.003 7.26 284.883 6.66C284.763 7.26 284.543 8.4 284.223 10.08C283.903 11.72 283.463 13.64 282.903 15.84L279.903 28.56ZM318.039 45.6C315.079 45.6 312.539 45.12 310.419 44.16C308.299 43.16 306.659 41.76 305.499 39.96C304.339 38.12 303.759 35.94 303.759 33.42H310.179C310.179 35.42 310.879 37 312.279 38.16C313.679 39.28 315.619 39.84 318.099 39.84C320.419 39.84 322.239 39.28 323.559 38.16C324.879 37.04 325.539 35.5 325.539 33.54C325.539 31.9 325.079 30.48 324.159 29.28C323.279 28.08 321.999 27.26 320.319 26.82L314.799 25.2C311.599 24.28 309.119 22.72 307.359 20.52C305.639 18.28 304.779 15.62 304.779 12.54C304.779 10.14 305.319 8.04 306.399 6.24C307.479 4.44 309.019 3.04 311.019 2.04C313.019 1.04 315.379 0.539997 318.099 0.539997C322.099 0.539997 325.299 1.62 327.699 3.78C330.139 5.94 331.379 8.84 331.419 12.48H324.939C324.939 10.56 324.319 9.06 323.079 7.98C321.879 6.86 320.179 6.3 317.979 6.3C315.859 6.3 314.199 6.82 312.999 7.86C311.799 8.86 311.199 10.28 311.199 12.12C311.199 13.76 311.639 15.18 312.519 16.38C313.439 17.58 314.739 18.42 316.419 18.9L321.999 20.58C325.199 21.46 327.659 23.02 329.379 25.26C331.099 27.5 331.959 30.18 331.959 33.3C331.959 35.74 331.379 37.9 330.219 39.78C329.059 41.62 327.439 43.06 325.359 44.1C323.279 45.1 320.839 45.6 318.039 45.6Z" fill="white"/>
<path d="M106.98 97V53.2H119.22C122.1 53.2 124.6 53.76 126.72 54.88C128.84 55.96 130.48 57.5 131.64 59.5C132.84 61.5 133.44 63.86 133.44 66.58V83.56C133.44 86.24 132.84 88.6 131.64 90.64C130.48 92.68 128.84 94.26 126.72 95.38C124.6 96.46 122.1 97 119.22 97H106.98ZM113.46 91.12H119.22C121.62 91.12 123.5 90.46 124.86 89.14C126.26 87.78 126.96 85.92 126.96 83.56V66.58C126.96 64.26 126.26 62.44 124.86 61.12C123.5 59.76 121.62 59.08 119.22 59.08H113.46V91.12ZM140.617 97V53.2H166.357V58.96H146.977V71.38H164.257V77.08H146.977V91.24H166.357V97H140.617ZM217.13 97.6C212.81 97.6 209.41 96.4 206.93 94C204.45 91.6 203.21 88.34 203.21 84.22H209.63C209.63 86.66 210.29 88.56 211.61 89.92C212.93 91.24 214.77 91.9 217.13 91.9C219.49 91.9 221.33 91.24 222.65 89.92C223.97 88.56 224.63 86.68 224.63 84.28V59.14H214.31V53.2H231.05V84.28C231.05 88.4 229.79 91.66 227.27 94.06C224.79 96.42 221.41 97.6 217.13 97.6ZM251.906 97.6C249.186 97.6 246.826 97.1 244.826 96.1C242.866 95.06 241.346 93.58 240.266 91.66C239.226 89.7 238.706 87.42 238.706 84.82V65.38C238.706 62.74 239.226 60.46 240.266 58.54C241.346 56.62 242.866 55.16 244.826 54.16C246.826 53.12 249.186 52.6 251.906 52.6C254.626 52.6 256.966 53.12 258.926 54.16C260.926 55.16 262.446 56.62 263.486 58.54C264.566 60.46 265.106 62.72 265.106 65.32V84.82C265.106 87.42 264.566 89.7 263.486 91.66C262.446 93.58 260.926 95.06 258.926 96.1C256.966 97.1 254.626 97.6 251.906 97.6ZM251.906 91.84C254.106 91.84 255.766 91.24 256.886 90.04C258.046 88.8 258.626 87.06 258.626 84.82V65.38C258.626 63.1 258.046 61.36 256.886 60.16C255.766 58.96 254.106 58.36 251.906 58.36C249.746 58.36 248.086 58.96 246.926 60.16C245.766 61.36 245.186 63.1 245.186 65.38V84.82C245.186 87.06 245.766 88.8 246.926 90.04C248.086 91.24 249.746 91.84 251.906 91.84ZM271.743 97V53.2H279.903L292.683 89.62C292.603 88.46 292.503 87.08 292.383 85.48C292.263 83.88 292.163 82.22 292.083 80.5C292.043 78.78 292.023 77.22 292.023 75.82V53.2H298.023V97H289.863L277.143 60.58C277.223 61.62 277.303 62.92 277.383 64.48C277.503 66.04 277.583 67.66 277.623 69.34C277.703 71.02 277.743 72.58 277.743 74.02V97H271.743ZM318.099 97.6C315.379 97.6 312.999 97.1 310.959 96.1C308.959 95.06 307.399 93.58 306.279 91.66C305.199 89.7 304.659 87.42 304.659 84.82V65.38C304.659 62.74 305.199 60.46 306.279 58.54C307.399 56.62 308.959 55.16 310.959 54.16C312.999 53.12 315.379 52.6 318.099 52.6C320.819 52.6 323.179 53.12 325.179 54.16C327.179 55.2 328.719 56.68 329.799 58.6C330.919 60.48 331.479 62.74 331.479 65.38H324.999C324.999 63.1 324.399 61.36 323.199 60.16C321.999 58.96 320.299 58.36 318.099 58.36C315.899 58.36 314.179 58.96 312.939 60.16C311.739 61.36 311.139 63.08 311.139 65.32V84.82C311.139 87.06 311.739 88.8 312.939 90.04C314.179 91.28 315.899 91.9 318.099 91.9C320.299 91.9 321.999 91.28 323.199 90.04C324.399 88.8 324.999 87.06 324.999 84.82V79.9H316.839V74.2H331.479V84.82C331.479 87.42 330.919 89.68 329.799 91.6C328.719 93.52 327.179 95 325.179 96.04C323.179 97.08 320.819 97.6 318.099 97.6Z" fill="white"/>
<path d="M4.176 96.444C3.18933 96.444 2.49867 96.0987 2.104 95.408C1.70933 94.7173 1.512 93.9773 1.512 93.188C1.61067 91.5107 2.00533 90.5733 2.696 90.376C3.38667 90.1787 4.22533 90.08 5.212 90.08C8.36933 90.08 10.54 89.5373 11.724 88.452C13.0067 87.268 13.796 85.8373 14.092 84.16C14.388 82.384 14.536 80.5587 14.536 78.684L14.832 19.928C14.832 15.2907 14.0427 12.3307 12.464 11.048C10.8853 9.76533 8.36933 8.77866 4.916 8.08799C3.436 7.792 2.44933 7.54533 1.956 7.34799C1.46267 7.05199 1.216 6.16399 1.216 4.68399C1.216 3.00666 1.808 2.11866 2.992 2.01999C4.176 1.82266 5.55733 1.724 7.136 1.724C12.6613 1.724 17.1013 2.168 20.456 3.056C23.9093 3.944 26.9187 5.52266 29.484 7.792C32.148 10.0613 35.0093 13.268 38.068 17.412L78.62 70.692H79.064L78.768 19.928C78.768 18.0533 78.62 16.2773 78.324 14.6C78.028 12.824 77.2387 11.3933 75.956 10.308C74.772 9.124 72.6013 8.532 69.444 8.532C68.4573 8.532 67.6187 8.43333 66.928 8.23599C66.2373 8.03866 65.7933 7.10133 65.596 5.42399C65.596 4.63466 65.7933 3.89466 66.188 3.20399C66.6813 2.51333 67.372 2.168 68.26 2.168C70.4307 2.26666 72.1573 2.36533 73.44 2.464C74.8213 2.464 76.1533 2.51333 77.436 2.61199C78.8173 2.61199 80.4947 2.61199 82.468 2.61199C84.4413 2.61199 86.0693 2.61199 87.352 2.61199C88.6347 2.51333 89.9173 2.464 91.2 2.464C92.5813 2.36533 94.308 2.26666 96.38 2.168C97.3667 2.168 98.0573 2.51333 98.452 3.20399C98.8467 3.89466 99.044 4.63466 99.044 5.42399C98.9453 7.10133 98.5507 8.03866 97.86 8.23599C97.268 8.43333 96.4293 8.532 95.344 8.532C92.2853 8.532 90.1147 9.124 88.832 10.308C87.5493 11.3933 86.76 12.824 86.464 14.6C86.2667 16.2773 86.1187 18.0533 86.02 19.928L85.724 94.52C85.6253 95.3093 85.132 95.8027 84.244 96C83.4547 96.296 82.7147 96.444 82.024 96.444C80.1493 96.444 78.7187 95.8027 77.732 94.52L21.936 19.928H21.492L21.788 78.684C21.8867 80.5587 22.0347 82.384 22.232 84.16C22.528 85.8373 23.3173 87.268 24.6 88.452C25.8827 89.5373 28.0533 90.08 31.112 90.08C32.1973 90.08 33.0853 90.1787 33.776 90.376C34.4667 90.5733 34.8613 91.5107 34.96 93.188C34.96 93.9773 34.7133 94.7173 34.22 95.408C33.8253 96.0987 33.184 96.444 32.296 96.444C30.224 96.3453 28.448 96.2467 26.968 96.148C25.5867 96.148 24.2053 96.0987 22.824 96C21.5413 96 19.9133 96 17.94 96C15.9667 96 14.3387 96 13.056 96C11.872 96.0987 10.6387 96.148 9.356 96.148C8.07333 96.2467 6.34667 96.3453 4.176 96.444Z" fill="white"/>
</g>
<defs>
<clipPath id="clip0_6_4">
<rect width="333" height="98" rx="2" fill="white"/>
</clipPath>
</defs>
</svg>
