<svg width="99" height="96" viewBox="0 0 99 96" fill="none" xmlns="http://www.w3.org/2000/svg">
<path d="M3.176 95.444C2.18933 95.444 1.49867 95.0987 1.104 94.408C0.709334 93.7173 0.512001 92.9773 0.512001 92.188C0.610667 90.5107 1.00533 89.5733 1.696 89.376C2.38667 89.1787 3.22533 89.08 4.212 89.08C7.36933 89.08 9.54 88.5373 10.724 87.452C12.0067 86.268 12.796 84.8373 13.092 83.16C13.388 81.384 13.536 79.5587 13.536 77.684L13.832 18.928C13.832 14.2907 13.0427 11.3307 11.464 10.048C9.88533 8.76533 7.36933 7.77866 3.916 7.08799C2.436 6.792 1.44933 6.54533 0.956 6.34799C0.462667 6.05199 0.216 5.16399 0.216 3.68399C0.216 2.00666 0.808 1.11866 1.992 1.01999C3.176 0.822662 4.55733 0.723996 6.136 0.723996C11.6613 0.723996 16.1013 1.168 19.456 2.056C22.9093 2.944 25.9187 4.52266 28.484 6.792C31.148 9.06133 34.0093 12.268 37.068 16.412L77.62 69.692H78.064L77.768 18.928C77.768 17.0533 77.62 15.2773 77.324 13.6C77.028 11.824 76.2387 10.3933 74.956 9.30799C73.772 8.124 71.6013 7.532 68.444 7.532C67.4573 7.532 66.6187 7.43333 65.928 7.23599C65.2373 7.03866 64.7933 6.10133 64.596 4.42399C64.596 3.63466 64.7933 2.89466 65.188 2.20399C65.6813 1.51333 66.372 1.168 67.26 1.168C69.4307 1.26666 71.1573 1.36533 72.44 1.464C73.8213 1.464 75.1533 1.51333 76.436 1.61199C77.8173 1.61199 79.4947 1.61199 81.468 1.61199C83.4413 1.61199 85.0693 1.61199 86.352 1.61199C87.6347 1.51333 88.9173 1.464 90.2 1.464C91.5813 1.36533 93.308 1.26666 95.38 1.168C96.3667 1.168 97.0573 1.51333 97.452 2.20399C97.8467 2.89466 98.044 3.63466 98.044 4.42399C97.9453 6.10133 97.5507 7.03866 96.86 7.23599C96.268 7.43333 95.4293 7.532 94.344 7.532C91.2853 7.532 89.1147 8.124 87.832 9.30799C86.5493 10.3933 85.76 11.824 85.464 13.6C85.2667 15.2773 85.1187 17.0533 85.02 18.928L84.724 93.52C84.6253 94.3093 84.132 94.8027 83.244 95C82.4547 95.296 81.7147 95.444 81.024 95.444C79.1493 95.444 77.7187 94.8027 76.732 93.52L20.936 18.928H20.492L20.788 77.684C20.8867 79.5587 21.0347 81.384 21.232 83.16C21.528 84.8373 22.3173 86.268 23.6 87.452C24.8827 88.5373 27.0533 89.08 30.112 89.08C31.1973 89.08 32.0853 89.1787 32.776 89.376C33.4667 89.5733 33.8613 90.5107 33.96 92.188C33.96 92.9773 33.7133 93.7173 33.22 94.408C32.8253 95.0987 32.184 95.444 31.296 95.444C29.224 95.3453 27.448 95.2467 25.968 95.148C24.5867 95.148 23.2053 95.0987 21.824 95C20.5413 95 18.9133 95 16.94 95C14.9667 95 13.3387 95 12.056 95C10.872 95.0987 9.63867 95.148 8.356 95.148C7.07333 95.2467 5.34667 95.3453 3.176 95.444Z" fill="white"/>
</svg>
